<svg version="1" xmlns="http://www.w3.org/2000/svg" width="666.667" height="666.667" viewBox="0 0 500.000000 500.000000"><path d="M238.5 135.6c-24.1 5.9-42.4 21.9-50.2 44.1-2.5 7-2.8 9.1-2.8 20.8.1 11.7.4 13.7 2.9 20.5 7.1 18.9 21.6 33.4 40.6 40.6 6.9 2.6 8.6 2.8 21 2.8s14.1-.2 21-2.8c19-7.2 33.5-21.7 40.6-40.6 2.5-6.8 2.8-8.8 2.9-20.5 0-11.8-.3-13.8-2.8-21-6.7-18.9-21.6-34-40.7-41-6.3-2.3-9.4-2.8-19-3.1-6.3-.1-12.4-.1-13.5.2zm29 12.5c15.6 4.8 29.5 18.8 34.6 34.8 3 9.2 3 25 0 34.2-3.8 12-11.6 22-22.5 29.1-9.1 5.8-17.1 8-29.6 8s-20.5-2.2-29.6-8c-10.9-7.1-18.7-17.1-22.5-29.1-3-9.2-3-25 0-34.2 4.9-15.4 18.1-29.1 33.1-34.4 10.6-3.8 25.1-3.9 36.5-.4zm-91.8 131.1c-13.9 14-24.9 31.3-32 50.3-3.1 8.1-7.3 23.9-8.3 30.7l-.6 4.8h115.1c68.7 0 115.1-.4 115.1-.9 0-3.2-3.5-18.1-6.1-26.1-6.9-21.2-18.7-41.3-33.1-56.5-10.5-11.1-10.9-11.3-15.6-7.9l-3.8 2.7 8 7.6c10.3 9.8 18 20.3 24.9 33.8 6.1 12 11.7 26.9 11.7 31.3 0 6.4 6.7 6-101 6-108.4 0-101 .5-101-6.5 0-7.3 10.6-32.1 19.3-45 5.7-8.4 13.2-17 19.7-22.5l5.6-4.6-4.3-3.2-4.3-3.3-9.3 9.3z" fill="#fff"/></svg>