<svg xmlns="http://www.w3.org/2000/svg" width="24" height="24" viewBox="0 0 24 24"><path fill="#fff" d="M12 0C5.373 0 0 5.373 0 12s5.373 12 12 12 12-5.373 12-12S18.627 0 12 0zm10 12c0 .685-.07 1.354-.202 2h-3.853a21.373 21.373 0 0 0 0-4h3.853c.132.646.202 1.315.202 2zm-.841-4h-3.5c-.383-1.96-1.052-3.751-1.948-5.278A10.048 10.048 0 0 1 21.159 8zm-5.554 0H13V2.342c1.215 1.46 2.117 3.41 2.605 5.658zM11 2.342V8H8.395C8.883 5.752 9.785 3.802 11 2.342zM11 10v4H8.07a18.32 18.32 0 0 1 0-4H11zm0 6v5.658c-1.215-1.46-2.117-3.41-2.605-5.658H11zm2 5.658V16h2.605c-.488 2.248-1.39 4.198-2.605 5.658zM13 14v-4h2.93a18.32 18.32 0 0 1 0 4H13zM8.289 2.722C7.393 4.249 6.724 6.04 6.341 8h-3.5a10.048 10.048 0 0 1 5.448-5.278zM2.202 10h3.853a21.373 21.373 0 0 0 0 4H2.202a9.983 9.983 0 0 1 0-4zm.639 6h3.5c.383 1.96 1.052 3.751 1.948 5.278A10.048 10.048 0 0 1 2.841 16zm12.87 5.278c.896-1.527 1.565-3.318 1.948-5.278h3.5a10.048 10.048 0 0 1-5.448 5.278z"/></svg>