<?xml version="1.0" standalone="no"?>
<!DOCTYPE svg PUBLIC "-//W3C//DTD SVG 20010904//EN"
 "http://www.w3.org/TR/2001/REC-SVG-20010904/DTD/svg10.dtd">
<svg version="1.0" xmlns="http://www.w3.org/2000/svg"
 width="500.000000pt" height="500.000000pt" viewBox="0 0 500.000000 500.000000"
 preserveAspectRatio="xMidYMid meet">
<g transform="translate(0.000000,500.000000) scale(0.100000,-0.100000)"
fill="#ffffff" stroke="none">
<path d="M2385 3644 c-241 -59 -424 -219 -502 -441 -25 -70 -28 -91 -28 -208
1 -117 4 -137 29 -205 71 -189 216 -334 406 -406 69 -26 86 -28 210 -28 124 0
141 2 210 28 190 72 335 217 406 406 25 68 28 88 29 205 0 118 -3 138 -28 210
-67 189 -216 340 -407 410 -63 23 -94 28 -190 31 -63 1 -124 1 -135 -2z m290
-125 c156 -48 295 -188 346 -348 30 -92 30 -250 0 -342 -38 -120 -116 -220
-225 -291 -91 -58 -171 -80 -296 -80 -125 0 -205 22 -296 80 -109 71 -187 171
-225 291 -30 92 -30 250 0 342 49 154 181 291 331 344 106 38 251 39 365 4z"/>
<path d="M1757 2208 c-139 -140 -249 -313 -320 -503 -31 -81 -73 -239 -83
-307 l-6 -48 1151 0 c687 0 1151 4 1151 9 0 32 -35 181 -61 261 -69 212 -187
413 -331 565 -105 111 -109 113 -156 79 l-38 -27 80 -76 c103 -98 180 -203
249 -338 61 -120 117 -269 117 -313 0 -64 67 -60 -1010 -60 -1084 0 -1010 -5
-1010 65 0 73 106 321 193 450 57 84 132 170 197 225 l56 46 -43 32 -43 33
-93 -93z"/>
</g>
</svg>
